{
 "cells": [
  {
   "cell_type": "markdown",
   "id": "bc71c82b",
   "metadata": {},
   "source": [
    "The Strange Case of Dr. Jekyll and Mr. Hyde by Robert Louis Stevenson\n",
    "\n",
    "Source https://www.gutenberg.org/ebooks/43\n",
    "\n",
    "Ref https://en.wikipedia.org/wiki/00"
   ]
  },
  {
   "cell_type": "code",
   "execution_count": null,
   "id": "8e0fc48f",
   "metadata": {},
   "outputs": [],
   "source": [
    "# Concept art\n",
    "\n",
    "Summary: \n",
    "\n",
    "Genre: \n",
    "\n",
    "Background: \n",
    "\n",
    "Main charactor:\n",
    "\n",
    "Prompt:\n",
    "Main charactor + Background + Summary\n",
    "--ar 3:2 --no text\n",
    "\n",
    "    \n",
    "ChatGPT prompt:\n",
    "As image prompt generator, write prompt to generate cover image of book 'The Strange Case of Dr. Jekyll and Mr. Hyde by Robert Louis Stevenson'    \n",
    "- Suggest the cover image\n",
    "- list keys elements of the image\n",
    "- explain each element in short\n",
    "- add visual detail if main character\n",
    "- add era of the story\n",
    "- generate prompt from explanations above with comma separated\n",
    "\n",
    "As image prompt generator, write prompt to generate cover image of book 'The Strange Case of Dr. Jekyll and Mr. Hyde by Robert Louis Stevenson'    \n",
    "- Suggest the cover image\n",
    "- list keys elements of the image\n",
    "- explain each element in detail\n",
    "- add visual detail if main character\n",
    "- add era of the story\n",
    "- generate prompt from explanations above with comma separated\n",
    "\n",
    "Create an image of a split man, one side showing a respectable-looking man wearing a top hat and carrying a cane, \n",
    "evoking the fashion of the Victorian era, and the other side showing a twisted and monstrous version of him with a wild and unkempt appearance. \n",
    "The split man is set against a blurred and ominous background.\n",
    "--ar 3:2 --no text\n",
    "\n",
    "A split image of a well-dressed gentleman on one side, and a wild, twisted figure on the other, set against a blurred and ominous background. The gentleman has a top hat, monocle, and well-manicured mustache, while the twisted figure has gnarled teeth, pointed ears, and a hunchback.\n",
    "--ar 3:2 --no text\n",
    "    \n",
    "    \n",
    "Create an image of a split man, a well-dressed gentleman on one side, and a wild, twisted figure on the other, set against a blurred and ominous background. The gentleman has a top hat, monocle, and well-manicured mustache, while the twisted figure has gnarled teeth, pointed ears, and a hunchback.\n",
    "--ar 3:2 --no text\n",
    "    \n",
    "a split image of a well-dressed gentleman on one side and a twisted figure on the other side, set against a blurred and ominous background. The gentleman should wear a top hat, monocle, and well-manicured mustache, while the twisted figure should have gnarled teeth, pointed ears, and a hunchback. The cover image should reflect the Victorian era\n",
    "--ar 3:2 --no text\n",
    "    \n",
    "A well-dressed gentleman stands on one side of the image, while a twisted figure looms behind him like a shadow. The gentleman wears a top hat, monocle, and has a well-manicured mustache, while the twisted figure has gnarled teeth, pointed ears, and a hunchback. The background is blurred and ominous, hinting at the darker themes of the story.\n",
    "--ar 3:2 --no text\n",
    "    "
   ]
  },
  {
   "cell_type": "code",
   "execution_count": null,
   "id": "0229b767",
   "metadata": {},
   "outputs": [],
   "source": [
    "# Youtube description\n",
    "\n",
    "Prompt: Write title, description, and keywords of youtube video of full audiobook of the classic book \"The Strange Case of Dr. Jekyll and Mr. Hyde by Robert Louis Stevenson\"\n",
    "    \n",
    "Title: The Strange Case of Dr. Jekyll and Mr. Hyde by Robert Louis Stevenson: Full Audiobook Edition\n",
    "\n",
    "Description: Enter the mysterious and chilling world of Robert Louis Stevenson with this full audiobook edition of his classic tale \"The Strange Case of Dr. Jekyll and Mr. Hyde.\" Follow lawyer Gabriel John Utterson as he investigates the bizarre and sinister relationship between the respected Dr. Jekyll and the terrifying Mr. Hyde. Let the expert narration and haunting soundscape transport you to the dark streets and alleyways of Victorian London.\n",
    "\n",
    "0:00:00 Chapter 1\n",
    "0:15:04 Chaptor 2\n",
    "0:34:09 Chaptor 3\n",
    "0:39:15 Chaptor 4\n",
    "0:49:53 Chaptor 5\n",
    "1:00:35 Chaptor 6\n",
    "1:10:03 Chaptor 7\n",
    "1:13:39 Chaptor 8\n",
    "1:41:54 Chaptor 9\n",
    "1:59:28 Chaptor 10\n",
    "        \n",
    "Credits\n",
    "Text: Project Gutenberg https://www.gutenberg.org/ebooks/43\n",
    "Voice: Google Cloud Text-to-Speech\n",
    "Produced by: The Classic Narrator 2023\n",
    "    \n",
    "Keywords: The Strange Case of Dr. Jekyll and Mr. Hyde, Robert Louis Stevenson, full audiobook, classic literature, mystery, thriller, Gabriel John Utterson, Dr. Jekyll, Mr. Hyde, Victorian London, expert narration, haunting soundscape, classic tale\n"
   ]
  },
  {
   "cell_type": "code",
   "execution_count": null,
   "id": "77a554fb",
   "metadata": {},
   "outputs": [],
   "source": [
    "# Voice test\n",
    "\n",
    "from TextToAudiobook import *\n",
    "test_tta = TextToAudiobook(\"test\")\n",
    "\n",
    "\n",
    "\n",
    "text = '''\n",
    "\n",
    "xxxx\n",
    "\n",
    "'''\n",
    "\n",
    "# Test voices\n",
    "voice = texttospeech.VoiceSelectionParams(\n",
    "    language_code=\"en-GB\",\n",
    "    name=\"en-GB-Neural2-A\",\n",
    ")\n",
    "\n",
    "voice = texttospeech.VoiceSelectionParams(\n",
    "    language_code=\"en-GB\",\n",
    "    name=\"en-GB-Standard-A\",\n",
    ")\n",
    "\n",
    "\n",
    "audio_config = texttospeech.AudioConfig(\n",
    "    audio_encoding=texttospeech.AudioEncoding.MP3,\n",
    "    speaking_rate=0.9\n",
    ")\n",
    "\n",
    "test_tta.synthesize_ssml(text, \"output.mp3\", voice, audio_config)\n",
    "# test_tta.synthesize_text(text, \"output.mp3\", voice, audio_config)\n",
    "\n"
   ]
  },
  {
   "cell_type": "code",
   "execution_count": 1,
   "id": "0326b8d9",
   "metadata": {},
   "outputs": [],
   "source": [
    "%load_ext autoreload\n",
    "%reload_ext autoreload\n",
    "%autoreload 2"
   ]
  },
  {
   "cell_type": "code",
   "execution_count": 6,
   "id": "c3793734",
   "metadata": {},
   "outputs": [],
   "source": [
    "# Text to script\n",
    "\n",
    "from TextToAudiobook import *\n",
    "\n",
    "folder_name = \"DrJekyll\"\n",
    "file_name = \"43-1.txt\"\n",
    "\n",
    "test_tta = TextToAudiobook(folder_name, char_limit_per_call=1000)"
   ]
  },
  {
   "cell_type": "code",
   "execution_count": 7,
   "id": "4b63cb09",
   "metadata": {},
   "outputs": [
    {
     "name": "stdout",
     "output_type": "stream",
     "text": [
      "Clean: 2546 lines\n",
      "./DrJekyll/project_file/clean/43-1.txt\n",
      "Tag: 2546 lines\n",
      "./DrJekyll/project_file/tag/43-1.txt\n",
      "Break: 2546 lines\n",
      "./DrJekyll/project_file/break/43-1.txt\n",
      "Split: 159 files\n",
      "./DrJekyll/project_file/split/43-1_txt/\n"
     ]
    }
   ],
   "source": [
    "#1 Clean raw file and copy to clean folder\n",
    "print(test_tta.clean_txt_raw(file_name))\n",
    "\n",
    "#2 Tag speech in clean file and copy to tag folder\n",
    "print(test_tta.tag_txt_clean(file_name))\n",
    "\n",
    "#3 Mark break point by chapter and characters limit\n",
    "print(test_tta.break_txt_tag(file_name))\n",
    "\n",
    "#4 Split into files by chapter and characters break\n",
    "print(test_tta.split_txt_break(file_name))"
   ]
  },
  {
   "cell_type": "code",
   "execution_count": 27,
   "id": "750cd4eb",
   "metadata": {},
   "outputs": [
    {
     "name": "stdout",
     "output_type": "stream",
     "text": [
      "Generate audio => ./DrJekyll/project_file/audio/43-1_txt/0010_037.mp3\n",
      "Generate audio => ./DrJekyll/project_file/audio/43-1_txt/0010_038.mp3\n",
      "Generate audio => ./DrJekyll/project_file/audio/43-1_txt/0010_039.mp3\n",
      "Synthesize: 3 files\n",
      "./DrJekyll/project_file/audio/43-1_txt/\n"
     ]
    }
   ],
   "source": [
    "# Split into files by chapter and characters break\n",
    "voice = texttospeech.VoiceSelectionParams(\n",
    "    language_code=\"en-GB\",\n",
    "    name=\"en-GB-Neural2-D\",\n",
    ")\n",
    "\n",
    "audio_config = texttospeech.AudioConfig(\n",
    "    audio_encoding=texttospeech.AudioEncoding.MP3,\n",
    "    speaking_rate=0.9\n",
    ")\n",
    "print(test_tta.synthesize_txt_split(file_name, file_limit=100, voice=voice, audio_config=audio_config))\n"
   ]
  },
  {
   "cell_type": "code",
   "execution_count": 28,
   "id": "ab7994d6",
   "metadata": {},
   "outputs": [
    {
     "name": "stdout",
     "output_type": "stream",
     "text": [
      "Generate track list: ./DrJekyll/project_file/audio/43-1_txt/track_list.txt [total: 159 files]\n"
     ]
    },
    {
     "name": "stderr",
     "output_type": "stream",
     "text": [
      "ffmpeg version 5.1.2 Copyright (c) 2000-2022 the FFmpeg developers\n",
      "  built with Apple clang version 14.0.0 (clang-1400.0.29.102)\n",
      "  configuration: --prefix=/usr/local/Cellar/ffmpeg/5.1.2 --enable-shared --enable-pthreads --enable-version3 --cc=clang --host-cflags= --host-ldflags= --enable-ffplay --enable-gnutls --enable-gpl --enable-libaom --enable-libbluray --enable-libdav1d --enable-libmp3lame --enable-libopus --enable-librav1e --enable-librist --enable-librubberband --enable-libsnappy --enable-libsrt --enable-libtesseract --enable-libtheora --enable-libvidstab --enable-libvmaf --enable-libvorbis --enable-libvpx --enable-libwebp --enable-libx264 --enable-libx265 --enable-libxml2 --enable-libxvid --enable-lzma --enable-libfontconfig --enable-libfreetype --enable-frei0r --enable-libass --enable-libopencore-amrnb --enable-libopencore-amrwb --enable-libopenjpeg --enable-libspeex --enable-libsoxr --enable-libzmq --enable-libzimg --disable-libjack --disable-indev=jack --enable-videotoolbox\n",
      "  libavutil      57. 28.100 / 57. 28.100\n",
      "  libavcodec     59. 37.100 / 59. 37.100\n",
      "  libavformat    59. 27.100 / 59. 27.100\n",
      "  libavdevice    59.  7.100 / 59.  7.100\n",
      "  libavfilter     8. 44.100 /  8. 44.100\n",
      "  libswscale      6.  7.100 /  6.  7.100\n",
      "  libswresample   4.  7.100 /  4.  7.100\n",
      "  libpostproc    56.  6.100 / 56.  6.100\n",
      "[mp3 @ 0x7fa8ef709b40] Estimating duration from bitrate, this may be inaccurate\n",
      "Input #0, concat, from './DrJekyll/project_file/audio/43-1_txt/track_list.txt':\n",
      "  Duration: N/A, start: 0.000000, bitrate: 32 kb/s\n",
      "  Stream #0:0: Audio: mp3, 24000 Hz, mono, fltp, 32 kb/s\n",
      "Output #0, mp3, to './DrJekyll/project_file/audio/43-1_txt.mp3':\n",
      "  Metadata:\n",
      "    TSSE            : Lavf59.27.100\n",
      "  Stream #0:0: Audio: mp3, 24000 Hz, mono, fltp, 32 kb/s\n",
      "Stream mapping:\n",
      "  Stream #0:0 -> #0:0 (copy)\n",
      "Press [q] to stop, [?] for help\n",
      "[mp3 @ 0x7fa8f0504200] Estimating duration from bitrate, this may be inaccurate\n",
      "[mp3 @ 0x7fa8f0105380] Estimating duration from bitrate, this may be inaccurate\n",
      "[mp3 @ 0x7fa8f0304300] Estimating duration from bitrate, this may be inaccurate\n",
      "[mp3 @ 0x7fa8ef70de80] Estimating duration from bitrate, this may be inaccurate\n",
      "[mp3 @ 0x7fa8f0304300] Estimating duration from bitrate, this may be inaccurate\n",
      "[mp3 @ 0x7fa8f0106200] Estimating duration from bitrate, this may be inaccurate\n",
      "[mp3 @ 0x7fa8f0704080] Estimating duration from bitrate, this may be inaccurate\n",
      "    Last message repeated 3 times\n",
      "[mp3 @ 0x7fa8f0304400] Estimating duration from bitrate, this may be inaccurate\n",
      "[mp3 @ 0x7fa8f0105380] Estimating duration from bitrate, this may be inaccurate\n",
      "    Last message repeated 1 times\n",
      "[mp3 @ 0x7fa8f0306a40] Estimating duration from bitrate, this may be inaccurate\n",
      "[mp3 @ 0x7fa8f03043c0] Estimating duration from bitrate, this may be inaccurate\n",
      "[mp3 @ 0x7fa8f0304300] Estimating duration from bitrate, this may be inaccurate\n",
      "[mp3 @ 0x7fa8f0704080] Estimating duration from bitrate, this may be inaccurate\n",
      "[mp3 @ 0x7fa8f06042c0] Estimating duration from bitrate, this may be inaccurate\n",
      "[mp3 @ 0x7fa8f0704080] Estimating duration from bitrate, this may be inaccurate\n",
      "[mp3 @ 0x7fa8f0105380] Estimating duration from bitrate, this may be inaccurate\n",
      "[mp3 @ 0x7fa8ef70e500] Estimating duration from bitrate, this may be inaccurate\n",
      "    Last message repeated 1 times\n",
      "[mp3 @ 0x7fa8f0304300] Estimating duration from bitrate, this may be inaccurate\n",
      "[mp3 @ 0x7fa8ef70ddc0] Estimating duration from bitrate, this may be inaccurate\n",
      "[mp3 @ 0x7fa8f0105380] Estimating duration from bitrate, this may be inaccurate\n",
      "[mp3 @ 0x7fa8f0304300] Estimating duration from bitrate, this may be inaccurate\n",
      "[mp3 @ 0x7fa8f01053c0] Estimating duration from bitrate, this may be inaccurate\n",
      "[mp3 @ 0x7fa8ef70dc40] Estimating duration from bitrate, this may be inaccurate\n",
      "[mp3 @ 0x7fa8f0105380] Estimating duration from bitrate, this may be inaccurate\n",
      "    Last message repeated 1 times\n",
      "[mp3 @ 0x7fa8ef70e500] Estimating duration from bitrate, this may be inaccurate\n",
      "    Last message repeated 1 times\n",
      "[mp3 @ 0x7fa8f0106200] Estimating duration from bitrate, this may be inaccurate\n",
      "[mp3 @ 0x7fa8f0304300] Estimating duration from bitrate, this may be inaccurate\n",
      "[mp3 @ 0x7fa8f07042c0] Estimating duration from bitrate, this may be inaccurate\n",
      "[mp3 @ 0x7fa8ef70e500] Estimating duration from bitrate, this may be inaccurate\n",
      "[mp3 @ 0x7fa8ef70e500] Estimating duration from bitrate, this may be inaccurate\n",
      "    Last message repeated 1 times\n",
      "[mp3 @ 0x7fa8f0704080] Estimating duration from bitrate, this may be inaccurate\n",
      "[mp3 @ 0x7fa8ef70e500] Estimating duration from bitrate, this may be inaccurate\n",
      "[mp3 @ 0x7fa8f0304340] Estimating duration from bitrate, this may be inaccurate\n",
      "[mp3 @ 0x7fa8f0304300] Estimating duration from bitrate, this may be inaccurate\n",
      "[mp3 @ 0x7fa8f0105380] Estimating duration from bitrate, this may be inaccurate\n",
      "[mp3 @ 0x7fa8ef70e500] Estimating duration from bitrate, this may be inaccurate\n",
      "[mp3 @ 0x7fa8f0304300] Estimating duration from bitrate, this may be inaccurate\n",
      "[mp3 @ 0x7fa8f01053c0] Estimating duration from bitrate, this may be inaccurate\n",
      "    Last message repeated 1 times\n",
      "[mp3 @ 0x7fa8f0304300] Estimating duration from bitrate, this may be inaccurate\n",
      "[mp3 @ 0x7fa8ef70e500] Estimating duration from bitrate, this may be inaccurate\n",
      "    Last message repeated 1 times\n",
      "[mp3 @ 0x7fa8f0704080] Estimating duration from bitrate, this may be inaccurate\n",
      "[mp3 @ 0x7fa8f0105380] Estimating duration from bitrate, this may be inaccurate\n",
      "[mp3 @ 0x7fa8f05043c0] Estimating duration from bitrate, this may be inaccurate\n",
      "[mp3 @ 0x7fa8f07042c0] Estimating duration from bitrate, this may be inaccurate\n",
      "[mp3 @ 0x7fa8f0704280] Estimating duration from bitrate, this may be inaccurate\n",
      "[mp3 @ 0x7fa8ef70e500] Estimating duration from bitrate, this may be inaccurate\n",
      "[mp3 @ 0x7fa8f0704200] Estimating duration from bitrate, this may be inaccurate\n",
      "[mp3 @ 0x7fa8f0304300] Estimating duration from bitrate, this may be inaccurate\n",
      "[mp3 @ 0x7fa8f07040c0] Estimating duration from bitrate, this may be inaccurate\n",
      "[mp3 @ 0x7fa8f0306a40] Estimating duration from bitrate, this may be inaccurate\n",
      "[mp3 @ 0x7fa8f0704240] Estimating duration from bitrate, this may be inaccurate\n",
      "[mp3 @ 0x7fa8ef70dc40] Estimating duration from bitrate, this may be inaccurate\n",
      "[mp3 @ 0x7fa8f07040c0] Estimating duration from bitrate, this may be inaccurate\n",
      "[mp3 @ 0x7fa8f0306a40] Estimating duration from bitrate, this may be inaccurate\n",
      "[mp3 @ 0x7fa8f0504200] Estimating duration from bitrate, this may be inaccurate\n",
      "[mp3 @ 0x7fa8f0004080] Estimating duration from bitrate, this may be inaccurate\n",
      "[mp3 @ 0x7fa8f0704080] Estimating duration from bitrate, this may be inaccurate\n",
      "[mp3 @ 0x7fa8f0004080] Estimating duration from bitrate, this may be inaccurate\n",
      "[mp3 @ 0x7fa8f06042c0] Estimating duration from bitrate, this may be inaccurate\n",
      "[mp3 @ 0x7fa8f0004080] Estimating duration from bitrate, this may be inaccurate\n",
      "[mp3 @ 0x7fa8f0106200] Estimating duration from bitrate, this may be inaccurate\n",
      "[mp3 @ 0x7fa8f0004080] Estimating duration from bitrate, this may be inaccurate\n",
      "[mp3 @ 0x7fa8f06042c0] Estimating duration from bitrate, this may be inaccurate\n",
      "[mp3 @ 0x7fa8f0204280] Estimating duration from bitrate, this may be inaccurate\n",
      "[mp3 @ 0x7fa8f06042c0] Estimating duration from bitrate, this may be inaccurate\n",
      "    Last message repeated 1 times\n",
      "[mp3 @ 0x7fa8f02042c0] Estimating duration from bitrate, this may be inaccurate\n",
      "[mp3 @ 0x7fa8f0204280] Estimating duration from bitrate, this may be inaccurate\n",
      "    Last message repeated 1 times\n",
      "[mp3 @ 0x7fa8f0105380] Estimating duration from bitrate, this may be inaccurate\n",
      "[mp3 @ 0x7fa8ef70e500] Estimating duration from bitrate, this may be inaccurate\n",
      "[mp3 @ 0x7fa8f0704100] Estimating duration from bitrate, this may be inaccurate\n",
      "[mp3 @ 0x7fa8ef70e500] Estimating duration from bitrate, this may be inaccurate\n",
      "[mp3 @ 0x7fa8f0704080] Estimating duration from bitrate, this may be inaccurate\n",
      "[mp3 @ 0x7fa8f0304300] Estimating duration from bitrate, this may be inaccurate\n",
      "    Last message repeated 1 times\n",
      "[mp3 @ 0x7fa8f06043c0] Estimating duration from bitrate, this may be inaccurate\n",
      "[mp3 @ 0x7fa8f0306a40] Estimating duration from bitrate, this may be inaccurate\n"
     ]
    },
    {
     "name": "stderr",
     "output_type": "stream",
     "text": [
      "    Last message repeated 1 times\n",
      "[mp3 @ 0x7fa8ef70e500] Estimating duration from bitrate, this may be inaccurate\n",
      "[mp3 @ 0x7fa8f07040c0] Estimating duration from bitrate, this may be inaccurate\n",
      "[mp3 @ 0x7fa8f06042c0] Estimating duration from bitrate, this may be inaccurate\n",
      "[mp3 @ 0x7fa8ef70ee80] Estimating duration from bitrate, this may be inaccurate\n",
      "[mp3 @ 0x7fa8f0704180] Estimating duration from bitrate, this may be inaccurate\n",
      "[mp3 @ 0x7fa8f0105600] Estimating duration from bitrate, this may be inaccurate\n",
      "[mp3 @ 0x7fa8ef70e140] Estimating duration from bitrate, this may be inaccurate\n",
      "[mp3 @ 0x7fa8f0704080] Estimating duration from bitrate, this may be inaccurate\n",
      "[mp3 @ 0x7fa8f0105440] Estimating duration from bitrate, this may be inaccurate\n",
      "[mp3 @ 0x7fa8f0304580] Estimating duration from bitrate, this may be inaccurate\n",
      "[mp3 @ 0x7fa8f0704200] Estimating duration from bitrate, this may be inaccurate\n",
      "[mp3 @ 0x7fa8ef70e500] Estimating duration from bitrate, this may be inaccurate\n",
      "[mp3 @ 0x7fa8f0704240] Estimating duration from bitrate, this may be inaccurate\n",
      "[mp3 @ 0x7fa8ef70e500] Estimating duration from bitrate, this may be inaccurate\n",
      "[mp3 @ 0x7fa8f0304300] Estimating duration from bitrate, this may be inaccurate\n",
      "[mp3 @ 0x7fa8f0704240] Estimating duration from bitrate, this may be inaccurate\n",
      "[mp3 @ 0x7fa8f01055c0] Estimating duration from bitrate, this may be inaccurate\n",
      "[mp3 @ 0x7fa8f0306a40] Estimating duration from bitrate, this may be inaccurate\n",
      "[mp3 @ 0x7fa8f0105380] Estimating duration from bitrate, this may be inaccurate\n",
      "[mp3 @ 0x7fa8f07040c0] Estimating duration from bitrate, this may be inaccurate\n",
      "[mp3 @ 0x7fa8ef70e540] Estimating duration from bitrate, this may be inaccurate\n",
      "[mp3 @ 0x7fa8f0704080] Estimating duration from bitrate, this may be inaccurate\n",
      "[mp3 @ 0x7fa8ef70e500] Estimating duration from bitrate, this may be inaccurate\n",
      "[mp3 @ 0x7fa8f0004280] Estimating duration from bitrate, this may be inaccurate\n",
      "[mp3 @ 0x7fa8f0106200] Estimating duration from bitrate, this may be inaccurate\n",
      "[mp3 @ 0x7fa8f0704080] Estimating duration from bitrate, this may be inaccurate\n",
      "[mp3 @ 0x7fa8f06042c0] Estimating duration from bitrate, this may be inaccurate\n",
      "[mp3 @ 0x7fa8ef70e500] Estimating duration from bitrate, this may be inaccurate\n",
      "    Last message repeated 1 times\n",
      "[mp3 @ 0x7fa8f0304340] Estimating duration from bitrate, this may be inaccurate\n",
      "[mp3 @ 0x7fa8f0704080] Estimating duration from bitrate, this may be inaccurate\n",
      "[mp3 @ 0x7fa8f0204280] Estimating duration from bitrate, this may be inaccurate\n",
      "[mp3 @ 0x7fa8f0504200] Estimating duration from bitrate, this may be inaccurate\n",
      "[mp3 @ 0x7fa8ef70e7c0] Estimating duration from bitrate, this may be inaccurate\n",
      "[mp3 @ 0x7fa8f0704240] Estimating duration from bitrate, this may be inaccurate\n",
      "[mp3 @ 0x7fa8f0106200] Estimating duration from bitrate, this may be inaccurate\n",
      "[mp3 @ 0x7fa8f0604300] Estimating duration from bitrate, this may be inaccurate\n",
      "[mp3 @ 0x7fa8f0105480] Estimating duration from bitrate, this may be inaccurate\n",
      "[mp3 @ 0x7fa8f0704080] Estimating duration from bitrate, this may be inaccurate\n",
      "[mp3 @ 0x7fa8f0004080] Estimating duration from bitrate, this may be inaccurate\n",
      "[mp3 @ 0x7fa8ef70e500] Estimating duration from bitrate, this may be inaccurate\n",
      "[mp3 @ 0x7fa8f0704180] Estimating duration from bitrate, this may be inaccurate\n",
      "[mp3 @ 0x7fa8f0504200] Estimating duration from bitrate, this may be inaccurate\n",
      "[mp3 @ 0x7fa8f0004840] Estimating duration from bitrate, this may be inaccurate\n",
      "[mp3 @ 0x7fa8f0504640] Estimating duration from bitrate, this may be inaccurate\n",
      "[mp3 @ 0x7fa8f07040c0] Estimating duration from bitrate, this may be inaccurate\n",
      "[mp3 @ 0x7fa8f0704080] Estimating duration from bitrate, this may be inaccurate\n",
      "[mp3 @ 0x7fa8ef70e500] Estimating duration from bitrate, this may be inaccurate\n",
      "[mp3 @ 0x7fa8f06042c0] Estimating duration from bitrate, this may be inaccurate\n",
      "[mp3 @ 0x7fa8f0304300] Estimating duration from bitrate, this may be inaccurate\n",
      "[mp3 @ 0x7fa8f0105380] Estimating duration from bitrate, this may be inaccurate\n",
      "    Last message repeated 2 times\n",
      "[mp3 @ 0x7fa8ef70e500] Estimating duration from bitrate, this may be inaccurate\n",
      "    Last message repeated 2 times\n",
      "[mp3 @ 0x7fa8f0105700] Estimating duration from bitrate, this may be inaccurate\n",
      "[mp3 @ 0x7fa8f0204280] Estimating duration from bitrate, this may be inaccurate\n",
      "[mp3 @ 0x7fa8f0106200] Estimating duration from bitrate, this may be inaccurate\n",
      "[mp3 @ 0x7fa8f0204280] Estimating duration from bitrate, this may be inaccurate\n",
      "[mp3 @ 0x7fa8f0604300] Estimating duration from bitrate, this may be inaccurate\n",
      "[mp3 @ 0x7fa8f06042c0] Estimating duration from bitrate, this may be inaccurate\n",
      "[mp3 @ 0x7fa8f00040c0] Estimating duration from bitrate, this may be inaccurate\n",
      "[mp3 @ 0x7fa8ef709940] Estimating duration from bitrate, this may be inaccurate\n",
      "[mp3 @ 0x7fa8f0105380] Estimating duration from bitrate, this may be inaccurate\n",
      "[mp3 @ 0x7fa8f07040c0] Estimating duration from bitrate, this may be inaccurate\n",
      "[mp3 @ 0x7fa8f0105380] Estimating duration from bitrate, this may be inaccurate\n",
      "[mp3 @ 0x7fa8f06042c0] Estimating duration from bitrate, this may be inaccurate\n",
      "    Last message repeated 1 times\n",
      "size=   38396kB time=02:43:49.32 bitrate=  32.0kbits/s speed=4.28e+03x    \n",
      "video:0kB audio:38396kB subtitle:0kB other streams:0kB global headers:0kB muxing overhead: 0.000603%\n"
     ]
    },
    {
     "name": "stdout",
     "output_type": "stream",
     "text": [
      "Generate full audio: ./DrJekyll/project_file/audio/43-1_txt.mp3\n",
      "./DrJekyll/project_file/audio/43-1_txt.mp3\n"
     ]
    }
   ],
   "source": [
    "# Merge audio files => full length\n",
    "print(test_tta.merge_audio_files(file_name))"
   ]
  },
  {
   "cell_type": "code",
   "execution_count": 32,
   "id": "b382e4e1",
   "metadata": {},
   "outputs": [
    {
     "name": "stderr",
     "output_type": "stream",
     "text": [
      "ffmpeg version 5.1.2 Copyright (c) 2000-2022 the FFmpeg developers\n",
      "  built with Apple clang version 14.0.0 (clang-1400.0.29.102)\n",
      "  configuration: --prefix=/usr/local/Cellar/ffmpeg/5.1.2 --enable-shared --enable-pthreads --enable-version3 --cc=clang --host-cflags= --host-ldflags= --enable-ffplay --enable-gnutls --enable-gpl --enable-libaom --enable-libbluray --enable-libdav1d --enable-libmp3lame --enable-libopus --enable-librav1e --enable-librist --enable-librubberband --enable-libsnappy --enable-libsrt --enable-libtesseract --enable-libtheora --enable-libvidstab --enable-libvmaf --enable-libvorbis --enable-libvpx --enable-libwebp --enable-libx264 --enable-libx265 --enable-libxml2 --enable-libxvid --enable-lzma --enable-libfontconfig --enable-libfreetype --enable-frei0r --enable-libass --enable-libopencore-amrnb --enable-libopencore-amrwb --enable-libopenjpeg --enable-libspeex --enable-libsoxr --enable-libzmq --enable-libzimg --disable-libjack --disable-indev=jack --enable-videotoolbox\n",
      "  libavutil      57. 28.100 / 57. 28.100\n",
      "  libavcodec     59. 37.100 / 59. 37.100\n",
      "  libavformat    59. 27.100 / 59. 27.100\n",
      "  libavdevice    59.  7.100 / 59.  7.100\n",
      "  libavfilter     8. 44.100 /  8. 44.100\n",
      "  libswscale      6.  7.100 /  6.  7.100\n",
      "  libswresample   4.  7.100 /  4.  7.100\n",
      "  libpostproc    56.  6.100 / 56.  6.100\n",
      "Input #0, png_pipe, from './DrJekyll/project_file/image/43-1_txt.png':\n",
      "  Duration: N/A, bitrate: N/A\n",
      "  Stream #0:0: Video: png, rgba(pc), 1280x720 [SAR 2835:2835 DAR 16:9], 25 fps, 25 tbr, 25 tbn\n",
      "Input #1, mp3, from './DrJekyll/project_file/audio/43-1_txt.mp3':\n",
      "  Metadata:\n",
      "    encoder         : Lavf59.27.100\n",
      "  Duration: 02:43:49.32, start: 0.022042, bitrate: 32 kb/s\n",
      "  Stream #1:0: Audio: mp3, 24000 Hz, mono, fltp, 32 kb/s\n",
      "Stream mapping:\n",
      "  Stream #0:0 -> #0:0 (png (native) -> h264 (libx264))\n",
      "  Stream #1:0 -> #0:1 (mp3 (mp3float) -> aac (native))\n",
      "Press [q] to stop, [?] for help\n",
      "[libx264 @ 0x7f9324c0adc0] using SAR=1/1\n",
      "[libx264 @ 0x7f9324c0adc0] using cpu capabilities: MMX2 SSE2Fast SSSE3 SSE4.2 AVX FMA3 BMI2 AVX2\n",
      "[libx264 @ 0x7f9324c0adc0] profile High, level 3.1, 4:2:0, 8-bit\n",
      "[libx264 @ 0x7f9324c0adc0] 264 - core 164 r3095 baee400 - H.264/MPEG-4 AVC codec - Copyleft 2003-2022 - http://www.videolan.org/x264.html - options: cabac=1 ref=3 deblock=1:-3:-3 analyse=0x3:0x113 me=hex subme=7 psy=1 psy_rd=2.00:0.70 mixed_ref=1 me_range=16 chroma_me=1 trellis=1 8x8dct=1 cqm=0 deadzone=21,11 fast_pskip=1 chroma_qp_offset=-4 threads=12 lookahead_threads=2 sliced_threads=0 nr=0 decimate=1 interlaced=0 bluray_compat=0 constrained_intra=0 bframes=3 b_pyramid=2 b_adapt=1 b_bias=0 direct=1 weightb=1 open_gop=0 weightp=2 keyint=250 keyint_min=25 scenecut=40 intra_refresh=0 rc_lookahead=40 rc=crf mbtree=1 crf=23.0 qcomp=0.60 qpmin=0 qpmax=69 qpstep=4 ip_ratio=1.40 aq=1:1.20\n",
      "[aac @ 0x7f9324c0c100] Too many bits 8192.000000 > 6144 per frame requested, clamping to max\n",
      "Output #0, mp4, to './DrJekyll/project_file/video/43-1_txt.mp4':\n",
      "  Metadata:\n",
      "    encoder         : Lavf59.27.100\n",
      "  Stream #0:0: Video: h264 (avc1 / 0x31637661), yuv420p(tv, progressive), 1280x720 [SAR 1:1 DAR 16:9], q=2-31, 25 fps, 12800 tbn\n",
      "    Metadata:\n",
      "      encoder         : Lavc59.37.100 libx264\n",
      "    Side data:\n",
      "      cpb: bitrate max/min/avg: 0/0/0 buffer size: 0 vbv_delay: N/A\n",
      "  Stream #0:1: Audio: aac (LC) (mp4a / 0x6134706D), 24000 Hz, mono, fltp, 144 kb/s\n",
      "    Metadata:\n",
      "      encoder         : Lavc59.37.100 aac\n",
      "frame=245775 fps= 95 q=28.0 size=  221952kB time=02:43:48.65 bitrate= 185.0kbits/s speed=3.79x    18 fps= 97 q=28.0 size=  204800kB time=02:31:06.36 bitrate= 185.0kbits/s speed=3.86x    \r"
     ]
    },
    {
     "name": "stdout",
     "output_type": "stream",
     "text": [
      "Generate full video: ./DrJekyll/project_file/video/43-1_txt.mp4\n",
      "./DrJekyll/project_file/video/43-1_txt.mp4\n"
     ]
    },
    {
     "name": "stderr",
     "output_type": "stream",
     "text": [
      "frame=245790 fps= 95 q=-1.0 Lsize=  228045kB time=02:43:51.48 bitrate= 190.0kbits/s speed=3.79x    \n",
      "video:102953kB audio:119155kB subtitle:0kB other streams:0kB global headers:0kB muxing overhead: 2.673307%\n",
      "[libx264 @ 0x7f9324c0adc0] frame I:984   Avg QP:11.83  size: 58861\n",
      "[libx264 @ 0x7f9324c0adc0] frame P:61939 Avg QP:11.52  size:   381\n",
      "[libx264 @ 0x7f9324c0adc0] frame B:182867 Avg QP:16.63  size:   131\n",
      "[libx264 @ 0x7f9324c0adc0] consecutive B-frames:  0.8%  0.0%  0.0% 99.2%\n",
      "[libx264 @ 0x7f9324c0adc0] mb I  I16..4:  8.8% 63.2% 28.0%\n",
      "[libx264 @ 0x7f9324c0adc0] mb P  I16..4:  0.0%  0.0%  0.0%  P16..4:  1.3%  0.2%  0.2%  0.0%  0.0%    skip:98.3%\n",
      "[libx264 @ 0x7f9324c0adc0] mb B  I16..4:  0.0%  0.0%  0.0%  B16..8:  3.0%  0.0%  0.0%  direct: 0.0%  skip:97.0%  L0:70.4% L1:29.6% BI: 0.1%\n",
      "[libx264 @ 0x7f9324c0adc0] 8x8 transform intra:63.3% inter:92.0%\n",
      "[libx264 @ 0x7f9324c0adc0] coded y,uvDC,uvAC intra: 83.8% 1.4% 1.3% inter: 0.2% 0.0% 0.0%\n",
      "[libx264 @ 0x7f9324c0adc0] i16 v,h,dc,p:  7%  7%  4% 81%\n",
      "[libx264 @ 0x7f9324c0adc0] i8 v,h,dc,ddl,ddr,vr,hd,vl,hu: 32% 15% 11%  6%  7%  8%  6% 10%  6%\n",
      "[libx264 @ 0x7f9324c0adc0] i4 v,h,dc,ddl,ddr,vr,hd,vl,hu: 30% 16%  8%  8% 10%  8%  6%  9%  5%\n",
      "[libx264 @ 0x7f9324c0adc0] i8c dc,h,v,p: 100%  0%  0%  0%\n",
      "[libx264 @ 0x7f9324c0adc0] Weighted P-Frames: Y:0.0% UV:0.0%\n",
      "[libx264 @ 0x7f9324c0adc0] ref P L0: 76.7%  0.0% 22.7%  0.6%\n",
      "[libx264 @ 0x7f9324c0adc0] ref B L0: 33.1% 66.8%  0.1%\n",
      "[libx264 @ 0x7f9324c0adc0] ref B L1: 99.9%  0.1%\n",
      "[libx264 @ 0x7f9324c0adc0] kb/s:85.78\n",
      "[aac @ 0x7f9324c0c100] Qavg: 65498.457\n"
     ]
    }
   ],
   "source": [
    "# Audio + Image => Video\n",
    "print(test_tta.merge_video_file(file_name))"
   ]
  },
  {
   "cell_type": "code",
   "execution_count": 29,
   "id": "004bc195",
   "metadata": {},
   "outputs": [
    {
     "name": "stdout",
     "output_type": "stream",
     "text": [
      "0:00:00 Chapter 1\n",
      "0:15:04 Chaptor 2\n",
      "0:34:09 Chaptor 3\n",
      "0:39:15 Chaptor 4\n",
      "0:49:53 Chaptor 5\n",
      "1:00:35 Chaptor 6\n",
      "1:10:03 Chaptor 7\n",
      "1:13:39 Chaptor 8\n",
      "1:41:54 Chaptor 9\n",
      "1:59:28 Chaptor 10\n"
     ]
    }
   ],
   "source": [
    "print(test_tta.gen_youtube_chapter_marker(file_name))"
   ]
  },
  {
   "cell_type": "code",
   "execution_count": null,
   "id": "a692882a",
   "metadata": {},
   "outputs": [],
   "source": []
  }
 ],
 "metadata": {
  "kernelspec": {
   "display_name": "Python tts env",
   "language": "python",
   "name": "tts_env"
  },
  "language_info": {
   "codemirror_mode": {
    "name": "ipython",
    "version": 3
   },
   "file_extension": ".py",
   "mimetype": "text/x-python",
   "name": "python",
   "nbconvert_exporter": "python",
   "pygments_lexer": "ipython3",
   "version": "3.9.12"
  }
 },
 "nbformat": 4,
 "nbformat_minor": 5
}
